<svg xmlns="http://www.w3.org/2000/svg" viewBox="0 0 750 500"><g id="freepik--background-complete--inject-160"><g><g><g><g><path d="M673.73,339.78h-180.75c-3.23,0-5.86-2.63-5.86-5.86V70.65c0-3.23,2.63-5.86,5.86-5.86h180.75c3.23,0,5.86,2.63,5.86,5.86V333.92c0,3.23-2.63,5.86-5.86,5.86ZM492.99,65.04c-3.09,0-5.61,2.52-5.61,5.61V333.92c0,3.09,2.52,5.61,5.61,5.61h180.75c3.09,0,5.61-2.52,5.61-5.61V70.65c0-3.09-2.52-5.61-5.61-5.61h-180.75Z" style="fill:#e0e0e0;"></path><path d="M465.31,339.78h-180.75c-3.23,0-5.86-2.63-5.86-5.86V70.65c0-3.23,2.63-5.86,5.86-5.86h180.75c3.23,0,5.86,2.63,5.86,5.86V333.92c0,3.23-2.63,5.86-5.86,5.86ZM284.56,65.04c-3.09,0-5.61,2.52-5.61,5.61V333.92c0,3.09,2.52,5.61,5.61,5.61h180.75c3.09,0,5.61-2.52,5.61-5.61V70.65c0-3.09-2.52-5.61-5.61-5.61h-180.75Z" style="fill:#e0e0e0;"></path></g><path d="M257.01,339.78H76.27c-3.23,0-5.86-2.63-5.86-5.86V70.65c0-3.23,2.63-5.86,5.86-5.86h180.75c3.23,0,5.86,2.63,5.86,5.86V333.92c0,3.23-2.63,5.86-5.86,5.86ZM76.27,65.04c-3.09,0-5.61,2.52-5.61,5.61V333.92c0,3.09,2.52,5.61,5.61,5.61h180.75c3.09,0,5.61-2.52,5.61-5.61V70.65c0-3.09-2.52-5.61-5.61-5.61H76.27Z" style="fill:#e0e0e0;"></path></g><rect y="400.85" width="750" height=".12" style="fill:#e0e0e0;"></rect></g><g><rect x="653.63" y="430.23" width="55.73" height=".42" style="fill:#ebebeb;"></rect><rect x="495.04" y="434.79" width="14.63" height=".42" style="fill:#ebebeb;"></rect><rect x="40.64" y="417.43" width="72.67" height=".42" style="fill:#ebebeb;"></rect><rect x="128.3" y="417.43" width="10.66" height=".42" style="fill:#ebebeb;"></rect><rect x="173.59" y="424.54" width="157.61" height=".42" style="fill:#ebebeb;"></rect></g></g><g><g><path d="M625.86,389.45c2.56-3.16,7.51-5.26,12.95-6.28-.43,1.55-.11,2.99,.81,3.34,1.03,.39,2.4-.71,3.07-2.46,.19-.49,.29-.98,.34-1.45,5.48-.45,10.96,.18,14.62,1.94,0,0-3.58,3.23-7.64,11.72-.12,0-.25,0-.38,0-2.63,.03-4.74,1.29-4.73,2.83,.01,1.12,1.16,2.08,2.8,2.5-.21,.54-.43,1.1-.64,1.67-3.86,10.46-14.17,2.9-14.08-4.26,0,0-12.87-2.47-7.13-9.55Z" style="fill:#e6e6e6;"></path><g><path d="M613.17,375.95c-3.16-3.41-8.96-5.44-15.23-6.19,.6,1.74,.35,3.4-.68,3.87-1.14,.52-2.79-.63-3.69-2.57-.25-.55-.41-1.1-.49-1.62-6.28-.1-12.48,1.03-16.52,3.31,0,0,4.32,3.41,9.58,12.78,.14-.01,.28-.03,.43-.04,2.99-.17,5.5,1.12,5.6,2.87,.07,1.28-1.17,2.45-3,3.06,.28,.6,.57,1.22,.85,1.86,5.19,11.63,16.37,2.24,15.73-5.91,0,0,14.49-3.78,7.42-11.42Z" style="fill:#e6e6e6;"></path><path d="M605.5,373.4c1.34-6.54,6.96-13.37,14.11-18.96,.56,2.59,2.11,4.44,3.72,4.25,1.79-.2,2.96-2.85,2.61-5.91-.1-.86-.32-1.66-.61-2.36,7.65-4.8,16.12-8.04,22.78-8.25,0,0-2.77,7.42-2.25,22.86-.18,.09-.37,.18-.55,.27-3.81,2.03-5.93,5.48-4.74,7.71,.87,1.63,3.26,2.15,5.97,1.52,.1,.95,.21,1.92,.34,2.92,2.29,18.17-18.46,14.96-23.75,4.46,0,0-20.63,6.15-17.63-8.51Z" style="fill:#ebebeb;"></path><path d="M620.08,414.92c-3.47-19.31,1.72-40.03,13.89-55.42l.59,.46c-12.04,15.22-17.18,35.72-13.74,54.82l-.74,.13Z" style="fill:#e0e0e0;"></path><path d="M619.51,408.34s-.08,0-.11-.02c-.11-.04-.2-.12-.24-.24-2.45-7.18-10.73-22.66-24.52-29.82-.18-.1-.26-.32-.16-.51,.1-.18,.32-.25,.51-.16,13.7,7.11,22.04,22.3,24.71,29.77,2.71-1.96,18.2-13.14,25.97-18.11,.17-.11,.41-.06,.52,.11,.11,.17,.06,.41-.11,.52-8.47,5.43-26.16,18.26-26.34,18.39-.07,.05-.14,.07-.22,.07Z" style="fill:#e0e0e0;"></path><g><polygon points="641.77 420.99 598.1 420.99 598.12 412.99 641.72 412.99 641.77 420.99" style="fill:#e0e0e0;"></polygon><polygon points="601.26 418.38 608.09 446.77 633.21 446.77 639.3 418.38 601.26 418.38" style="fill:#e0e0e0;"></polygon></g></g></g><path d="M604.42,411.6h-3.88c-.14,0-.25-.11-.25-.25s.11-.25,.25-.25h3.88c.14,0,.25,.11,.25,.25s-.11,.25-.25,.25Z" style="fill:#e0e0e0;"></path><path d="M616.83,411.6h-10.63c-.14,0-.25-.11-.25-.25s.11-.25,.25-.25h10.63c.14,0,.25,.11,.25,.25s-.11,.25-.25,.25Z" style="fill:#e0e0e0;"></path></g><g><rect x="518.94" y="85.02" width="1.8" height="140.37" style="fill:#e0e0e0;"></rect><rect x="630.99" y="85.02" width="1.8" height="140.37" style="fill:#e0e0e0;"></rect><polygon points="639.84 93.85 511.89 93.85 509.19 87.55 642.54 87.55 639.84 93.85" style="fill:#f0f0f0;"></polygon><polygon points="639.84 102.5 511.89 102.5 509.19 96.2 642.54 96.2 639.84 102.5" style="fill:#f0f0f0;"></polygon><polygon points="639.84 111.15 511.89 111.15 509.19 104.85 642.54 104.85 639.84 111.15" style="fill:#f0f0f0;"></polygon><polygon points="639.84 119.8 511.89 119.8 509.19 113.5 642.54 113.5 639.84 119.8" style="fill:#f0f0f0;"></polygon><polygon points="639.84 128.45 511.89 128.45 509.19 122.15 642.54 122.15 639.84 128.45" style="fill:#f0f0f0;"></polygon><polygon points="639.84 137.1 511.89 137.1 509.19 130.8 642.54 130.8 639.84 137.1" style="fill:#f0f0f0;"></polygon><polygon points="639.84 145.75 511.89 145.75 509.19 139.45 642.54 139.45 639.84 145.75" style="fill:#f0f0f0;"></polygon><polygon points="639.84 154.4 511.89 154.4 509.19 148.1 642.54 148.1 639.84 154.4" style="fill:#f0f0f0;"></polygon><polygon points="639.84 163.04 511.89 163.04 509.19 156.74 642.54 156.74 639.84 163.04" style="fill:#f0f0f0;"></polygon><polygon points="639.84 171.69 511.89 171.69 509.19 165.39 642.54 165.39 639.84 171.69" style="fill:#f0f0f0;"></polygon><polygon points="639.84 180.34 511.89 180.34 509.19 174.04 642.54 174.04 639.84 180.34" style="fill:#f0f0f0;"></polygon><polygon points="639.84 188.99 511.89 188.99 509.19 182.69 642.54 182.69 639.84 188.99" style="fill:#f0f0f0;"></polygon><polygon points="639.84 197.64 511.89 197.64 509.19 191.34 642.54 191.34 639.84 197.64" style="fill:#f0f0f0;"></polygon><polygon points="639.84 206.29 511.89 206.29 509.19 199.99 642.54 199.99 639.84 206.29" style="fill:#f0f0f0;"></polygon><polygon points="639.84 214.94 511.89 214.94 509.19 208.64 642.54 208.64 639.84 214.94" style="fill:#f0f0f0;"></polygon><polygon points="639.84 223.59 511.89 223.59 509.19 217.29 642.54 217.29 639.84 223.59" style="fill:#f0f0f0;"></polygon><rect x="509.19" y="223.59" width="133.35" height="3.6" style="fill:#e0e0e0;"></rect><rect x="504.54" y="79.66" width="142.65" height="8.4" style="fill:#e0e0e0;"></rect><path d="M506,164.22h0c-.8,0-1.45-.65-1.45-1.45v-49c0-.8,.65-1.45,1.45-1.45h0c.8,0,1.45,.65,1.45,1.45v49c0,.8-.65,1.45-1.45,1.45Z" style="fill:#e0e0e0;"></path><rect x="505.48" y="86.38" width="1.05" height="29.1" style="fill:#e0e0e0;"></rect></g><g><rect x="424.51" y="158.19" width="50.87" height="65.36" rx="3.51" ry="3.51" transform="translate(-28.38 90.45) rotate(-11.13)" style="fill:#e6e6e6;"></rect><path d="M432.56,172.74h28.5c.98,0,1.77,.8,1.77,1.77v.79c0,.98-.8,1.77-1.77,1.77h-28.5c-.98,0-1.77-.8-1.77-1.77v-.79c0-.98,.8-1.77,1.77-1.77Z" transform="translate(-25.36 89.55) rotate(-11.13)" style="fill:#f0f0f0;"></path><path d="M434.7,183.63h28.5c.98,0,1.77,.8,1.77,1.77v.79c0,.98-.8,1.77-1.77,1.77h-28.5c-.98,0-1.77-.8-1.77-1.77v-.79c0-.98,.8-1.77,1.77-1.77Z" transform="translate(-27.42 90.17) rotate(-11.13)" style="fill:#f0f0f0;"></path><path d="M436.84,194.53h28.5c.98,0,1.77,.8,1.77,1.77v.79c0,.98-.8,1.77-1.77,1.77h-28.5c-.98,0-1.77-.8-1.77-1.77v-.79c0-.98,.8-1.77,1.77-1.77Z" transform="translate(-29.49 90.78) rotate(-11.13)" style="fill:#f0f0f0;"></path><path d="M439.13,206.89h13.34c.98,0,1.77,.8,1.77,1.77v.79c0,.98-.8,1.77-1.77,1.77h-13.34c-.98,0-1.77-.8-1.77-1.77v-.79c0-.98,.8-1.77,1.77-1.77Z" transform="translate(-31.97 89.99) rotate(-11.13)" style="fill:#f0f0f0;"></path></g><g><rect x="108.19" y="58.69" width="53.83" height="69.17" rx="6.7" ry="6.7" transform="translate(-20.17 39.96) rotate(-15.67)" style="fill:#e6e6e6;"></rect><path d="M145.19,74.94l-28.23,7.92c-1.22,.34-2.49-.37-2.83-1.59h0c-.34-1.22,.37-2.49,1.59-2.83l28.23-7.92c1.22-.34,2.49,.37,2.83,1.59h0c.34,1.22-.37,2.49-1.59,2.83Z" style="fill:#f0f0f0;"></path><path d="M148.36,86.25l-28.23,7.92c-1.22,.34-2.49-.37-2.83-1.59h0c-.34-1.22,.37-2.49,1.59-2.83l28.23-7.92c1.22-.34,2.49,.37,2.83,1.59h0c.34,1.22-.37,2.49-1.59,2.83Z" style="fill:#f0f0f0;"></path><path d="M151.53,97.57l-28.23,7.92c-1.22,.34-2.49-.37-2.83-1.59h0c-.34-1.22,.37-2.49,1.59-2.83l28.23-7.92c1.22-.34,2.49,.37,2.83,1.59h0c.34,1.22-.37,2.49-1.59,2.83Z" style="fill:#f0f0f0;"></path><path d="M139.26,113.21l-12.78,3.59c-1.22,.34-2.49-.37-2.83-1.59h0c-.34-1.22,.37-2.49,1.59-2.83l12.78-3.59c1.22-.34,2.49,.37,2.83,1.59h0c.34,1.22-.37,2.49-1.59,2.83Z" style="fill:#f0f0f0;"></path></g><g><rect x="669.69" y="175.91" width="32.69" height="42" rx="3.51" ry="3.51" transform="translate(64.04 -153.14) rotate(13.35)" style="fill:#e6e6e6;"></rect><path d="M696.79,190.15l-17.32-4.11c-.75-.18-1.21-.93-1.03-1.68h0c.18-.75,.93-1.21,1.68-1.03l17.32,4.11c.75,.18,1.21,.93,1.03,1.68h0c-.18,.75-.93,1.21-1.68,1.03Z" style="fill:#f0f0f0;"></path><path d="M695.15,197.09l-17.32-4.11c-.75-.18-1.21-.93-1.03-1.68h0c.18-.75,.93-1.21,1.68-1.03l17.32,4.11c.75,.18,1.21,.93,1.03,1.68h0c-.18,.75-.93,1.21-1.68,1.03Z" style="fill:#f0f0f0;"></path><path d="M693.5,204.03l-17.32-4.11c-.75-.18-1.21-.93-1.03-1.68h0c.18-.75,.93-1.21,1.68-1.03l17.32,4.11c.75,.18,1.21,.93,1.03,1.68h0c-.18,.75-.93,1.21-1.68,1.03Z" style="fill:#f0f0f0;"></path><path d="M682.37,208.73l-7.84-1.86c-.75-.18-1.21-.93-1.03-1.68h0c.18-.75,.93-1.21,1.68-1.03l7.84,1.86c.75,.18,1.21,.93,1.03,1.68h0c-.18,.75-.93,1.21-1.68,1.03Z" style="fill:#f0f0f0;"></path></g><g><rect x="45.61" y="271.19" width="27.35" height="35.13" rx="3.51" ry="3.51" transform="translate(-108.01 46.05) rotate(-22.98)" style="fill:#e6e6e6;"></rect><path d="M63.18,278.87l-13.71,5.81c-.59,.25-1.28-.03-1.53-.62h0c-.25-.59,.03-1.28,.62-1.53l13.71-5.81c.59-.25,1.28,.03,1.53,.62h0c.25,.59-.03,1.28-.62,1.53Z" style="fill:#f0f0f0;"></path><path d="M65.51,284.36l-13.71,5.81c-.59,.25-1.28-.03-1.53-.62h0c-.25-.59,.03-1.28,.62-1.53l13.71-5.81c.59-.25,1.28,.03,1.53,.62h0c.25,.59-.03,1.28-.62,1.53Z" style="fill:#f0f0f0;"></path><path d="M67.84,289.86l-13.71,5.81c-.59,.25-1.28-.03-1.53-.62h0c-.25-.59,.03-1.28,.62-1.53l13.71-5.81c.59-.25,1.28,.03,1.53,.62h0c.25,.59-.03,1.28-.62,1.53Z" style="fill:#f0f0f0;"></path><path d="M62.67,298.53l-6.21,2.63c-.59,.25-1.28-.03-1.53-.62h0c-.25-.59,.03-1.28,.62-1.53l6.21-2.63c.59-.25,1.28,.03,1.53,.62h0c.25,.59-.03,1.28-.62,1.53Z" style="fill:#f0f0f0;"></path></g></g><g id="freepik--Shadow--inject-160"><path d="M715.08,448.39c0,3.39-152.26,6.14-340.08,6.14s-340.08-2.75-340.08-6.14,152.26-6.14,340.08-6.14,340.08,2.75,340.08,6.14Z" style="fill:#f5f5f5;"></path></g><g id="freepik--Clipboard--inject-160"><g><rect x="132.34" y="71.62" width="269.15" height="375.11" rx="7.43" ry="7.43" style="fill:#3B82F6;"></rect><rect x="142.12" y="109.03" width="249.6" height="323.67" style="opacity:.3;"></rect><g><rect x="142.57" y="85.4" width="249.6" height="337.42" style="fill:#fff;"></rect><rect x="171.28" y="117.47" width="192.18" height="10.38" style="fill:#e0e0e0;"></rect><rect x="170.82" y="392.45" width="192.18" height="10.38" style="fill:#e0e0e0;"></rect><g><rect x="178.73" y="248.17" width="139.38" height="1" style="fill:#263238;"></rect><rect x="178.73" y="262.81" width="139.38" height="1" style="fill:#263238;"></rect></g><g><path d="M362.28,269.55h-26.36v-26.36h26.36v26.36Zm-25.36-1h24.36v-24.36h-24.36v24.36Z" style="fill:#263238;"></path><polygon points="352.36 266.44 338.47 256.1 342.08 251.26 351.39 258.19 364.18 242.93 368.81 246.81 352.36 266.44" style="fill:#3B82F6;"></polygon></g><g><rect x="178.73" y="201.84" width="139.38" height="1" style="fill:#263238;"></rect><rect x="178.73" y="216.48" width="139.38" height="1" style="fill:#263238;"></rect></g><g><path d="M362.28,223.22h-26.36v-26.36h26.36v26.36Zm-25.36-1h24.36v-24.36h-24.36v24.36Z" style="fill:#263238;"></path><polygon points="352.36 220.11 338.47 209.77 342.08 204.93 351.39 211.86 364.18 196.6 368.81 200.48 352.36 220.11" style="fill:#3B82F6;"></polygon></g><g><rect x="178.73" y="155.51" width="139.38" height="1" style="fill:#263238;"></rect><rect x="178.73" y="170.15" width="139.38" height="1" style="fill:#263238;"></rect></g><g><path d="M362.28,176.89h-26.36v-26.36h26.36v26.36Zm-25.36-1h24.36v-24.36h-24.36v24.36Z" style="fill:#263238;"></path><polygon points="352.36 173.78 338.47 163.44 342.08 158.6 351.39 165.53 364.18 150.27 368.81 154.15 352.36 173.78" style="fill:#3B82F6;"></polygon></g><g><rect x="178.73" y="293.71" width="139.38" height="1" style="fill:#263238;"></rect><rect x="178.73" y="308.35" width="139.38" height="1" style="fill:#263238;"></rect></g><path d="M362.28,315.09h-26.36v-26.36h26.36v26.36Zm-25.36-1h24.36v-24.36h-24.36v24.36Z" style="fill:#263238;"></path><g><rect x="178.73" y="339.24" width="139.38" height="1" style="fill:#263238;"></rect><rect x="178.73" y="353.88" width="139.38" height="1" style="fill:#263238;"></rect></g><path d="M362.28,360.62h-26.36v-26.36h26.36v26.36Zm-25.36-1h24.36v-24.36h-24.36v24.36Z" style="fill:#263238;"></path></g><g><g><rect x="224.22" y="65.13" width="85.38" height="32.2" style="fill:#263238;"></rect><polygon points="293.95 68.38 244.02 68.38 238.45 43.86 300.78 43.86 293.95 68.38" style="fill:#263238;"></polygon></g><path d="M295.69,43.86c-.06,.15-6.65,20.99-6.49,20.99h5.67l6-20.99h-5.18Z" style="opacity:.3;"></path><path d="M304.09,65.13s-.41,32.2,0,32.2h5.51v-32.2h-5.51Z" style="opacity:.3;"></path></g></g></g><g id="freepik--Speech_Bubble_2--inject-160"><g><g><path d="M641.04,121.37h-26.37c-6.76,0-12.24,5.48-12.24,12.24v14.78c0,6.76,5.48,12.24,12.24,12.24h6l.96,6.83,7.28-6.83h12.14c6.76,0,12.24-5.48,12.24-12.24v-14.78c0-6.76-5.48-12.24-12.24-12.24Z" style="fill:#3B82F6;"></path><g><path d="M635.58,141.05c0,1.74,1.41,3.15,3.15,3.15s3.15-1.41,3.15-3.15-1.41-3.15-3.15-3.15-3.15,1.41-3.15,3.15Z" style="fill:#fff;"></path><path d="M624.84,141.05c0,1.74,1.41,3.15,3.15,3.15s3.15-1.41,3.15-3.15-1.41-3.15-3.15-3.15-3.15,1.41-3.15,3.15Z" style="fill:#fff;"></path><path d="M613.82,141.05c0,1.74,1.41,3.15,3.15,3.15s3.15-1.41,3.15-3.15-1.41-3.15-3.15-3.15-3.15,1.41-3.15,3.15Z" style="fill:#fff;"></path></g></g><path d="M641.72,119.03h-16.73c-.48,0-.48,.75,0,.75h16.73c.48,0,.48-.75,0-.75h0Z" style="fill:#3B82F6;"></path><path d="M622.9,119.03h-1.4c-.2,0-.38,.17-.38,.38s.16,.38,.38,.38h1.4c.2,0,.38-.17,.38-.38s-.16-.38-.38-.38h0Z" style="fill:#3B82F6;"></path></g></g><g id="freepik--Speech_Bubble_1--inject-160"><g><g><path d="M65.53,122.52h25.44c6.52,0,11.81,5.29,11.81,11.81v14.26c0,6.52-5.29,11.81-11.81,11.81h-5.79l-.92,6.59-7.02-6.59h-11.71c-6.52,0-11.81-5.29-11.81-11.81v-14.26c0-6.52,5.29-11.81,11.81-11.81Z" style="fill:#3B82F6;"></path><g><path d="M70.8,141.5c0,1.68-1.36,3.04-3.04,3.04s-3.04-1.36-3.04-3.04,1.36-3.04,3.04-3.04,3.04,1.36,3.04,3.04Z" style="fill:#fff;"></path><path d="M81.16,141.5c0,1.68-1.36,3.04-3.04,3.04s-3.04-1.36-3.04-3.04,1.36-3.04,3.04-3.04,3.04,1.36,3.04,3.04Z" style="fill:#fff;"></path><path d="M91.79,141.5c0,1.68-1.36,3.04-3.04,3.04s-3.04-1.36-3.04-3.04,1.36-3.04,3.04-3.04,3.04,1.36,3.04,3.04Z" style="fill:#fff;"></path></g></g><path d="M64.88,120.99h16.14c.48,0,.48-.75,0-.75h-16.14c-.48,0-.48,.75,0,.75h0Z" style="fill:#3B82F6;"></path><path d="M83.04,120.99h1.35c.2,0,.38-.17,.38-.38s-.16-.38-.38-.38h-1.35c-.2,0-.38,.17-.38,.38s.16,.38,.38,.38h0Z" style="fill:#3B82F6;"></path></g></g><g id="freepik--Clock--inject-160"><g><g><g><circle cx="455.46" cy="89.49" r="27.79" transform="translate(36.11 288.47) rotate(-36.5)" style="fill:#3B82F6;"></circle><circle cx="455.46" cy="89.49" r="27.79" transform="translate(36.11 288.47) rotate(-36.5)" style="opacity:.3;"></circle><path d="M473.36,107.92c-11.01,10.69-28.61,10.43-39.3-.58-10.69-11.01-10.43-28.61,.58-39.3,11.01-10.69,28.61-10.43,39.3,.58,10.69,11.01,10.43,28.61-.58,39.3Z" style="fill:#3B82F6;"></path><circle cx="454" cy="87.98" r="23.09" transform="translate(111.29 398.48) rotate(-53.14)" style="fill:#fff;"></circle><path d="M442.92,104.37l3.07-4.54c.09,.06,.18,.12,.27,.18l-2.96,4.62c-.13-.08-.26-.17-.38-.25Zm-6.12-6.63c-.08-.13-.15-.27-.22-.4l4.83-2.58c.05,.1,.1,.19,.16,.28l-4.77,2.7Zm15,9.9l.6-5.45,.34,.03-.5,5.46c-.15-.01-.29-.03-.44-.04Zm-17.57-19.01c0-.15,0-.3-.01-.45l5.48-.05v.33l-5.47,.18Zm26.95,17.78l-2-5.11,.31-.12,2.18,5.03-.13,.05c-.09,.04-.23,.09-.37,.15Zm-24.98-27.03c.07-.14,.13-.27,.2-.41l4.88,2.49c-.05,.1-.1,.19-.14,.29l-4.94-2.37Zm28.63,17.95c.07-.08,.13-.16,.2-.24l4.23,3.48c-.1,.12-.2,.24-.31,.36l-4.13-3.61Zm-19.33-20.83l-3.25-4.41,.36-.26,3.18,4.47-.28,.2Zm22.43,14.75l.07-.33,5.36,1.15c-.03,.15-.06,.29-.1,.44l-5.33-1.26Zm-16.11-17.39l-.85-5.42c.15-.02,.29-.04,.44-.06l.75,5.43-.34,.05Zm16.04,10.55c-.03-.1-.05-.21-.08-.31l5.27-1.51c.04,.15,.08,.3,.12,.45l-5.31,1.37Zm-9.22-9.95l1.77-5.19c.15,.05,.3,.1,.44,.16l-1.92,5.14c-.1-.04-.2-.07-.3-.11Zm5.98,3.93l-.22-.24,3.98-3.77c.1,.11,.21,.22,.31,.33l-4.07,3.68Z"></path></g><g><path d="M453.7,89.38s-.04,0-.07,0c-.15-.02-.29-.11-.36-.24l-5.51-9.48c-.14-.24-.06-.54,.18-.68,.24-.14,.54-.06,.68,.18l5.19,8.93,8.46-8.23c.2-.19,.51-.19,.71,0s.19,.51,0,.71l-8.92,8.67c-.09,.09-.22,.14-.35,.14Z"></path><path d="M455.31,89.31c-.63,.72-1.72,.79-2.43,.16-.72-.63-.79-1.72-.16-2.43,.63-.72,1.72-.79,2.43-.16,.72,.63,.79,1.72,.16,2.43Z"></path></g></g><path d="M438.59,73.12c9.15-8.88,23.77-8.66,32.65,.49,2.18,2.25,3.81,4.83,4.89,7.57-1.03-3.44-2.86-6.68-5.53-9.44-8.88-9.15-23.5-9.37-32.65-.48-6.9,6.7-8.71,16.66-5.38,25.08-2.39-7.99-.38-17,6.02-23.21Z" style="opacity:.3;"></path></g></g><g id="freepik--Plant--inject-160"><g id="freepik--freepik--Plant--inject-2--inject-160"><path d="M69.79,435.65c0-.42-4.41-42.85,5.33-78.94l1.24,.32c-9.66,35.86-5.33,78.06-5.33,78.49l-1.24,.12Z" style="fill:#263238;"></path><path d="M80.35,365.86s-13.41,24.9-10.73,54.24c0,0,5.58-36.05,10.73-54.24Z" style="fill:#3B82F6;"></path><path d="M53.7,353.54s19.57,27.52,16.18,62.67c-.02,.04-7.63-44.15-16.18-62.67Z" style="fill:#3B82F6;"></path><path d="M69.79,424.69s4.23-36.34-18.25-46.83c-.06,0,11.93,8.86,18.25,46.83Z" style="fill:#3B82F6;"></path><path d="M72.1,357.27l-.41,.07c-.59,.11-.98,.67-.87,1.26,0,.04,.02,.07,.03,.11l.5,1.81c.16,.58,.75,.92,1.33,.76,.18-.05,.34-.14,.47-.27l.67-.65c.44-.42,1.13-.4,1.55,.04,.1,.11,.18,.23,.23,.37l.91,2.49c.2,.56,.82,.86,1.39,.65,.07-.02,.13-.06,.2-.09l2.09-1.24c.51-.31,.68-.97,.37-1.49-.04-.07-.09-.14-.15-.2l-.34-.35c-.41-.44-.39-1.14,.05-1.55,.19-.18,.44-.28,.71-.29h1.82c.6-.01,1.07-.51,1.06-1.11,0-.05,0-.09-.01-.14l-.2-1.56c-.08-.59-.62-1.01-1.21-.94-.12,.02-.24,.05-.35,.1l-.12,.06c-.55,.25-1.2,.01-1.45-.54-.13-.28-.13-.6-.02-.88l.6-1.37c.24-.55-.01-1.19-.56-1.42-.09-.04-.19-.07-.3-.08l-1.93-.26c-.59-.09-1.14,.32-1.23,.91,0,.05-.01,.09-.01,.14h0c-.03,.6-.54,1.07-1.15,1.04-.37-.02-.71-.22-.9-.54l-.25-.45c-.3-.52-.97-.71-1.49-.41-.07,.04-.14,.09-.2,.14l-1.43,1.34c-.44,.42-.46,1.11-.04,1.55,.01,.02,.03,.03,.04,.04l1.15,1.06c.44,.42,.46,1.11,.04,1.55-.15,.16-.35,.27-.57,.32Z" style="fill:#3B82F6;"></path><path d="M73.89,415.34l1.57-12.14h-13.69l1.56,12.14c-6.55,2.25-10.94,8.41-10.95,15.34,.12,3.75,1.03,7.44,2.66,10.82,1.58,3.32,4.95,5.43,8.63,5.4h9.96c3.68,.03,7.04-2.08,8.61-5.4,1.64-3.38,2.56-7.06,2.68-10.82,0-6.95-4.43-13.12-11.02-15.34Z" style="fill:#3B82F6;"></path></g></g><g id="freepik--Character_3--inject-160"><g><g><path d="M598.67,310.31l-7.18-.47s-5.03-36.88-5.51-38.35c-.66-2.68-4.69-23.24-6.28-28.49l.77-.12c-.85-2.7-.13-5.62,2.66-6.53,2.79-.91,6.61,.59,7.48,3.27,1.79,5.45,5.21,26.14,5.72,28.62,0,.06,0,.12,0,.17,1.63,10.79,2.34,41.9,2.34,41.9Z" style="fill:#b97964;"></path><path d="M598.67,310.31c0,3.35-2.99,5.09-5.15,5.32h-11.39l-.66-.16c-.2-.06-.32-.26-.26-.47,.02-.07,.06-.14,.11-.19l2.05-1.68c2.26-1.86,5.34-2.47,8.12-3.27l7.18,.45Z" style="fill:#b97964;"></path><path d="M584.1,225.02c-1.04,.51-1.82,.66-2.56,1.43-7.6,7.84-.95,28.11-.95,28.11l14.32-1.35s1.42-17.27-.2-22.66c-1.72-5.65-5.03-9.24-10.61-5.52Z" style="fill:#3B82F6;"></path></g><g><polygon points="632.2 422.95 633.46 436.22 643.45 437.31 644.46 423.04 632.2 422.95" style="fill:#e4897b;"></polygon><g><path d="M631.3,433.92c-.02-.52,.44-.94,.95-.92l3.03,.12c.77,.01,1.55,1.44,1.99,2.07,1.92,2.75,3.4,1.74,5.56-.79,1.35-.14,1.7,1.44,1.8,1.87l2.41,9.43c.21,.79-.25,1.6-1.02,1.81-.14,.04-.28,.06-.42,.05-4.12-.06-6.06-.08-11.19-.16l-15.67-.22c-4.27-.06-5.1-4.46-3.33-4.84,7.93-1.67,13.57-3.97,16.04-6.28,.35-.3-.13-1.19-.17-2.16Z" style="fill:#3B82F6;"></path><path d="M632.69,439.19c-.08,0-.17-.04-.21-.12-.58-.97-1.58-1.64-2.68-1.81-.14-.02-.23-.15-.21-.29,.02-.14,.14-.23,.29-.21,1.24,.19,2.38,.96,3.03,2.05,.07,.12,.03,.27-.09,.34-.04,.02-.08,.04-.13,.04Z" style="fill:#fff;"></path><path d="M630.44,440.5c-.08,0-.17-.04-.21-.12-.58-.97-1.58-1.64-2.68-1.81-.14-.02-.23-.15-.21-.29s.15-.23,.29-.21c1.24,.19,2.38,.96,3.03,2.05,.07,.12,.03,.27-.09,.34-.04,.02-.08,.04-.13,.04Z" style="fill:#fff;"></path><path d="M627.67,441.82c-.08,0-.17-.04-.21-.12-.58-.97-1.58-1.64-2.68-1.81-.14-.02-.23-.15-.21-.29,.02-.14,.15-.23,.29-.21,1.24,.19,2.37,.96,3.03,2.05,.07,.12,.03,.27-.09,.34-.04,.02-.08,.04-.13,.04Z" style="fill:#fff;"></path></g></g><path d="M586.15,240.22c3.74,6.61,11.75,15.47,33.11,29.09l26.34-20.69c-8.85-10.79-13.44-16.95-24.24-40.25-1.03-2.3-3.97-5.03-6.38-5.64-1.99-.47-4.09-.15-5.85,.9-1.95,1.17-4.08,2.51-6.15,3.99-4.72,3.18-9.21,6.7-13.44,10.54-2.95,2.78-5.9,5.96-8,8.29,0,0,0,.37,.17,1.23,.74,4.41,2.25,8.66,4.44,12.54Z" style="fill:#3B82F6;"></path><g><path d="M569.95,177.99c-4.54,4.92-4.89,10.5-3.97,14.24,1.81,4.92,4.36,8.1,6.83,12.71l6.61-33c-2.97,1.38-4.52,1.08-9.46,6.05Z" style="fill:#263238;"></path><path d="M576.03,173.73c4.66-3.73,10.43-2.08,13.87-.79,3.9,2.01,6.74,5.62,7.82,9.93,.91,4.05,2.02,8.96,.07,11.67-1.08,1.56-2.76,2.58-4.61,2.83l-23.96-13.66c1.4-3.85,3.75-7.28,6.81-9.98Z" style="fill:#263238;"></path><path d="M597.92,228.71c2.18,.53,2.36-3.71,3.66-5.58,3.62-9.35,.78-15.1,.78-15.1-3.46-1.09-4.31-2.5-6.28-7.29-.06-.14-.14-.27-.22-.39-.37-.57-.9-1.02-1.52-1.27-1.68-.74-3.63,.06-4.36,1.77h0l-3.83,4.39h0l.09,.23c1.46,2.37,2.67,4.17,3.55,5.62,.07,.19,.22,.36,.32,.53h0c.07,.19,.2,.38,.31,.55,1.12,2.05-.47,4.9-1.38,6.45-.52,1,1.52,8.3,8.88,10.08Z" style="fill:#b97964;"></path><path d="M595.02,184.78c1.9,9.42,2.91,13.35-.34,19.51-4.9,9.26-16.44,9.92-21.07,1.35-4.1-7.73-6.56-21.8,1.19-28.23,7.75-6.43,18.29-2.06,20.21,7.37Z" style="fill:#b97964;"></path><path d="M600.93,191.8c-.48,2.25-1.85,4.02-3.33,4.97-2.22,1.42-4.7-2.08-4.65-4.8,.05-2.45,1.96-4.7,4.45-5.01,2.46-.3,4.07,2.26,3.52,4.84Z" style="fill:#b97964;"></path><path d="M595.68,193.27c-.11,0-.21-.08-.24-.19-.23-.96-.08-2,.42-2.85,.5-.86,1.34-1.49,2.28-1.74,.13-.03,.27,.04,.31,.18,.04,.13-.04,.27-.18,.31-.82,.22-1.54,.77-1.98,1.51-.44,.74-.57,1.65-.37,2.48,.03,.13-.05,.27-.18,.3-.02,0-.04,0-.06,0Z" style="opacity:.2;"></path><g><g><path d="M583.88,191.75c.26,.99,0,1.97-.6,2.18-.59,.21-1.29-.41-1.55-1.4-.26-.99,0-1.97,.6-2.18,.59-.21,1.29,.41,1.55,1.4Z" style="fill:#263238;"></path><path d="M574.89,194.75c.25,.96-.02,1.91-.62,2.12-.59,.21-1.28-.39-1.53-1.35-.25-.96,.02-1.91,.62-2.12,.59-.21,1.28,.39,1.53,1.35Z" style="fill:#263238;"></path><path d="M584.71,187.72c-.11,.05-.24,.06-.36,0-1.82-.84-3.25,.15-3.27,.16-.21,.15-.49,.09-.62-.13-.13-.22-.06-.53,.15-.68,.07-.05,1.87-1.3,4.13-.25,.22,.1,.32,.39,.21,.64-.05,.12-.14,.21-.25,.26Z" style="fill:#263238;"></path><path d="M570.41,191.14c-.1,0-.2-.04-.27-.13-.15-.18-.13-.48,.04-.67,1.71-1.88,3.54-1.5,3.61-1.48,.22,.05,.34,.3,.28,.55-.06,.26-.29,.42-.5,.38-.07-.02-1.49-.29-2.85,1.21-.09,.1-.2,.15-.31,.14Z" style="fill:#263238;"></path><path d="M577.19,193.47s-.34,3.93-1.27,6.62c-.16,.47,.18,.96,.67,.98,1.26,.04,2.45-.78,2.45-.78l-1.86-6.81Z" style="fill:#a24e3f;"></path></g><path d="M582.68,190.27l-2.25,.2s1.64,1.19,2.25-.2Z" style="fill:#263238;"></path><path d="M573.58,193.34l-2.25,.2s1.64,1.19,2.25-.2Z" style="fill:#263238;"></path></g><g><path d="M580.23,202.71c.96,.68,2.39,2.19,2.39,2.19,.16-.11,.32-.22,.47-.33,2.13-1.52,2.63-2.94,2.53-4.04-.05-.6-.29-1.12-.53-1.5-.28-.45-.57-.7-.57-.7-.66,1.49-2.54,3.06-3.57,3.86-.43,.34-.72,.53-.72,.53Z" style="fill:#263238;"></path><path d="M580.95,202.18l.72,.63c2-1.44,3.22-2.72,3.43-3.79-.28-.45-.57-.7-.57-.7-.66,1.49-2.54,3.06-3.57,3.86Z" style="fill:#fff;"></path><path d="M583.1,204.57c2.13-1.52,2.63-2.94,2.53-4.04-.71,.55-1.5,1.29-2.04,2.16-.42,.67-.52,1.32-.5,1.88Z" style="fill:#de5753;"></path></g><path d="M592.33,187.84s-6.67-4.82-8.01-10.02c0,0-19.87,.37-14.4,16.47,0,0-7.31-13.3,7.62-19.4,14.93-6.1,22.72,13.55,17.32,22.38-.04-.07,1.6-6.4-2.53-9.44Z" style="fill:#263238;"></path><path d="M606.01,171.37c.6,4.35-2.39,8.42-6.69,9.08-4.29,.66-8.26-2.33-8.86-6.68-.56-4.09,2.05-7.98,6.03-8.95,4.44-.86,8.69,2.06,9.52,6.55Z" style="fill:#263238;"></path><path d="M570.98,178.66c-1.59,2.47-2.37,5.39-2.22,8.32,.46,2.04,3.53,2.84,3.53,2.84l2.35-5.26,.88,3.9c5.34-1.95,7.85-5.67,8.77-10.38l-4.3-4.78s-7.54,3.32-9,5.36Z" style="fill:#263238;"></path><path d="M598.38,177.95c.97,2.1,2.72,3.8,4.82,4.7-.95,.32-2,.32-2.94,0,.22,.79,.57,1.54,1.04,2.2-2.64-1.33-4.61-3.94-5.19-6.88l2.27-.03Z" style="fill:#263238;"></path></g><path d="M616.56,268.01l27.47-21.34" style="fill:#3B82F6;"></path><g><polygon points="695.63 409.31 704.54 419.08 713.24 413.95 705.55 401.98 695.63 409.31" style="fill:#e4897b;"></polygon><g><path d="M701.45,418.59c-.33-.4-.21-1.02,.21-1.32l2.48-1.79c.62-.47,2.09,.18,2.82,.41,3.16,1,3.74-.72,3.95-4.07,.99-.95,2.21,.1,2.55,.37l7.53,6c.64,.5,.76,1.42,.27,2.07-.09,.12-.19,.22-.3,.3-3.3,2.5-4.87,3.69-8.98,6.8l-12.58,9.53c-3.43,2.6-6.71-.39-5.53-1.78,5.31-6.24,8.42-11.56,9.01-14.93,.09-.46-.81-.87-1.42-1.61Z" style="fill:#3B82F6;"></path><path d="M702.13,422.2c-.09,0-.17-.05-.22-.13-.07-.12-.03-.27,.1-.34,1.1-.62,2.46-.71,3.63-.25,.13,.05,.19,.2,.14,.32-.05,.13-.2,.19-.32,.14-1.03-.41-2.23-.33-3.2,.22-.04,.02-.08,.03-.12,.03Z" style="fill:#fff;"></path><path d="M701.12,424.63c-.09,0-.17-.05-.22-.13-.07-.12-.03-.27,.1-.34,1.1-.62,2.46-.71,3.63-.25,.13,.05,.19,.2,.14,.32-.05,.13-.19,.19-.32,.14-1.03-.41-2.23-.33-3.2,.22-.04,.02-.08,.03-.12,.03Z" style="fill:#fff;"></path><path d="M699.71,427.4c-.09,0-.17-.05-.22-.13-.07-.12-.03-.27,.1-.34,1.1-.62,2.46-.71,3.63-.25,.13,.05,.19,.2,.14,.32-.05,.13-.2,.19-.32,.14-1.03-.41-2.23-.33-3.2,.22-.04,.02-.08,.03-.12,.03Z" style="fill:#fff;"></path></g></g><g><path d="M619.26,269.31s7.96,101.56,8.02,102.13l4.98,59.44h12.92s.09-3.42,.76-7.93c5.9-39.52-.15-52.3-.15-52.3,0,0,5.19-76.3,7.01-82.05,.18-.6-6-44.33-33.54-19.29Z" style="fill:#263238;"></path><path d="M619.06,269.18l.36,.59c5.33,7.21,15.42,14.88,20.69,21.46l1.84,4.15s40.78-28.52,15.82-40.79c-1.04-.51-11.06-5.84-11.06-5.84-6.61-1.62-27.65,20.42-27.65,20.42Z" style="fill:#263238;"></path><path d="M673.37,297.9c.16,13.17,1.66,47.34,3.44,60.38,0,0,10.24,8.06,15.51,16.17l15.98,31.43-10.21,6.75-32.84-32.4c-7.4-7.51-10.08-12.65-12.44-19.25-5.78-16.12-6.9-35.72-9.45-51.46-1.17-7.3-6.33-31.01-4.54-38.12,2.41-9.63,5.1-25.38,16.18-18.24,10.86,5.02,17.28,8.14,18.37,44.76Z" style="fill:#263238;"></path><polygon points="647.88 341.41 638.44 279.89 627.67 276.3 636.08 284.14 647.88 341.41" style="isolation:isolate; opacity:.2;"></polygon></g><g><path d="M595.78,243.2s17.89,8.71,23.58,5.49c5.69-3.22,4.65-14.11,4.54-16.23-.1-2.08-.38-4.33-.38-4.33l1.34-.16-2.81-16.57s-4.55,30.17-5.5,30.17-20.78,1.64-20.78,1.64Z" style="isolation:isolate; opacity:.2;"></path><path d="M620.96,217.65c1.43,6.16,1.12,17.74,.93,22.35-.06,2.17-.89,4.24-2.34,5.83-1.77,1.88-3.68,2.85-9.61,1.19-5.07-1.42-27.52-7.37-27.52-7.37l1.43-5.78s11.61,1.49,26.7,3.21c-.18-7.45,.1-17.58,.72-20.01,1.04-3.99,7.87-7.22,9.69,.59Z" style="fill:#b97964;"></path><path d="M610.31,203.93c-3.2,2.4-3.6,23.39-3.6,23.39h15.71s.66-14.62-.73-18.16c-2.16-5.72-7.79-7.92-11.37-5.23Z" style="fill:#3B82F6;"></path><g><path d="M586.16,233.9l-5.64-2.82c-.63-.31-1.3-.5-2-.55l-3.43-.25c-1.37-.09-2.56,.97-2.65,2.37v.03l-.17,3.09c-.04,1.23,.78,2.31,1.96,2.57l3.5,.77s6.04,2.46,7.85-.6l.6-4.6Z" style="fill:#b97964;"></path><path d="M573.74,233.69c-.1-.62-2.12-.98-3.35-1.16-1.23-.19-4.54-.32-5.24-.9-.7-.59-.58-1.82,.11-1.81,.7,.01,2.91-.02,4.65,.14s5.1,.18,5.83,.36c.72,.19-2,3.37-2,3.37Z" style="fill:#b97964;"></path></g></g></g></g><g id="freepik--Character_2--inject-160"><g><g><path d="M466.65,270.52l17.53,9.68,18.57-26.03,7.36,13.3s-17.75,26.61-24.41,26.99c-6.66,.38-24.11-18.15-24.11-18.15l5.06-5.79Z" style="fill:#e4897b;"></path><g><path d="M467.55,271.33s1.18-3.28-.08-5.87c-1.26-2.59-1.57-4.99-2.64-6.85-1.07-1.86-1.62,.98-1.61,2.55,.01,1.57,.01,3.35-1.17,3.17-1.18-.18-9.23-6.59-10.89-6.65-1.67-.06-.69,1.38-.69,1.38,0,0-2-1.5-2.81-.88-.21,.16-.44,.88,.37,1.71,1.8,1.86,5.79,5.58,5.79,5.58-.22-.22-5.47-4.45-6.34-4.98-1.14-.69-2.03-.44-2.41,.23-.54,.96,5.79,6.43,5.89,6.84,0,0-3.54-3.27-4.88-2.82-1.34,.45,.77,2.63,3,4.2,2.04,1.44,5.68,4.79,7.9,6.05,2.74,1.55,4.92,1.98,7.31,.25,2.39-1.73,3.26-3.91,3.26-3.91Z" style="fill:#e4897b;"></path><path d="M455.3,263.4c-.06,0-.12-.02-.17-.07-1.44-1.37-2.96-2.7-4.51-3.93-.11-.09-.13-.24-.04-.35,.09-.11,.25-.12,.35-.04,1.57,1.24,3.1,2.58,4.55,3.96,.1,.09,.1,.25,0,.35-.05,.05-.12,.08-.18,.08Z" style="opacity:.3;"></path><path d="M452.3,269.13s-.07,0-.1-.02c-.13-.05-.19-.2-.13-.33,1.03-2.41,2.82-4.53,5.01-5.97,.11-.08,.27-.04,.35,.07,.08,.12,.04,.27-.07,.35-2.12,1.38-3.83,3.43-4.83,5.75-.04,.09-.13,.15-.23,.15Z" style="opacity:.3;"></path><path d="M462.99,271.62c-.06,0-.12-.02-.16-.06-.84-.72-1.43-1.75-1.61-2.84-.19-1.09,.02-2.26,.57-3.22,.07-.12,.22-.16,.34-.09,.12,.07,.16,.22,.09,.34-.49,.86-.68,1.91-.51,2.89s.7,1.91,1.45,2.55c.11,.09,.12,.25,.03,.35-.05,.06-.12,.09-.19,.09Z" style="opacity:.3;"></path></g></g><g><path d="M528.33,239.08c.19,1.77,.1,3.32-.49,4.11-.61,.81-1.66,1.37-2.8,1.75,1.01,1.94,3.55,3.5,3.55,3.5h7.13s3.22,.72,4.45,.02c1.01-.57,2.08-1.11,3.04-1.76,.49-.33,.95-.72,1.4-1.13-1.5-.88-2.87-2.07-3.35-3.63-1.24-4.03,.09-17.8,.09-17.8l-15.04,6.18s.12,.34,.29,.91c.48,1.59,1.44,4.99,1.73,7.82Z" style="fill:#e4897b;"></path><path d="M519.3,201.55c.41-.52-.73-12.31,19.56-6.44,15.06,4.35,9.37,16.16,9.37,16.16l-17.23-12.44-11.71,2.72Z" style="fill:#263238;"></path><path d="M538.86,231.15s-3.23,6.72-10.66,6.49c-.29-2.84-1.26-6.23-1.73-7.82,.56-.21,.92-.34,.92-.34l11.47,1.67Z" style="isolation:isolate; opacity:.2;"></path><path d="M519.7,199.14s-4.38,12.39,1.45,18.59c5.83,6.2,10.37-17.55,10.37-17.55l-11.83-1.04Z" style="fill:#263238;"></path><path d="M538.87,231.62c-4.59,3.46-9.78,4.31-14.15,1.94-2.81-1.51-5.11-4.1-6.21-7.4-.15-.43-.27-.88-.38-1.34-1.84-8.43-.29-22.27,8.93-25.81,6.56-2.57,13.97,.67,16.53,7.24,.74,1.86,1.02,3.88,.83,5.88-.73,9.31-.19,15.44-5.54,19.48Z" style="fill:#e4897b;"></path><path d="M531.8,214.56c.05,.97-.55,1.76-1.2,1.75-.65-.01-1.14-.82-1.13-1.8,.01-.98,.56-1.76,1.2-1.75,.63,.01,1.14,.81,1.13,1.8Z" style="fill:#263238;"></path><path d="M522.45,214.56c.05,.97-.56,1.76-1.2,1.75-.64-.01-1.14-.83-1.13-1.8,.01-.98,.56-1.76,1.2-1.75,.63,.01,1.14,.87,1.13,1.8Z" style="fill:#263238;"></path><path d="M524.33,214.72c-.95,2.31-2.22,4.47-3.76,6.43,1.04,.78,2.37,1.05,3.64,.75l.12-7.18Z" style="fill:#de5753;"></path><path d="M518.5,210.56c.14,.08,.32,.08,.47,0,.96-.6,2.15-.72,3.21-.31,.22,.11,.49,.02,.59-.2,.11-.22,.02-.49-.2-.59h0c-1.33-.55-2.84-.42-4.05,.34-.21,.12-.29,.39-.17,.6h0c.04,.07,.09,.12,.15,.16Z" style="fill:#263238;"></path><path d="M531.97,211.06c.09,0,.18-.03,.25-.08,.17-.18,.15-.46-.03-.63h0c-1.05-.99-2.52-1.39-3.93-1.1-.24,.06-.38,.31-.31,.54h0c.07,.23,.31,.37,.55,.31h0c1.12-.2,2.27,.13,3.1,.91,.11,.07,.25,.08,.38,.04Z" style="fill:#263238;"></path><path d="M537.8,200.36l-.78,4.07c1.3,.81,2.01,2.38,1.28,3.96-1.56,3.36,.04,8.85,2.54,11.17,0,0,.18-1.49,1.42-1.05,1.24,.44,.05,6.71-1.27,10.56,0,0,2.87-1.92,5.53-9.95,2.46-7.43,3.12-13.72,1.77-16.75l-10.49-2.01Z" style="fill:#263238;"></path><path d="M548.34,219.87c-1.08,2.09-2.94,3.67-5.18,4.39-2.97,.93-4.56-1.71-3.82-4.57,.68-2.54,3.03-6.16,6.06-5.82,3.03,.35,4.23,3.41,2.94,5.99Z" style="fill:#e4897b;"></path><path d="M519.7,199.14c-.52,.97,1.13,4.55,4.89,6.26,3.76,1.72-.24-2.09-.24-2.09,0,0,7.55,2.59,7.76,1.62,.2-.97-2.13-2.38-2.13-2.38,0,0,6.29,2.96,11.38,1.7,5.1-1.26-4.19-9.7-10.11-9.53-5.92,.17-9.97,1.47-11.54,4.4Z" style="fill:#263238;"></path><path d="M541.59,220.41l-.49-.09c.3-1.64,1.35-3.11,2.81-3.93,.85-.48,1.67-.5,2.18-.05l-.33,.38c-.41-.36-1.1-.17-1.61,.11-1.33,.75-2.29,2.09-2.56,3.59Z" style="opacity:.1;"></path><path d="M527.37,225.22c.76,.02,1.51-.14,2.17-.51,.8-.44,1.4-1.15,1.86-1.93,.25-.42-.4-.79-.65-.38-.4,.67-.91,1.27-1.59,1.66-.56,.31-1.16,.42-1.79,.41-.48-.01-.48,.74,0,.75h0Z" style="fill:#263238;"></path></g><g><g><polygon points="565 447.1 568.93 447.1 561.66 362.19 557.74 362.19 565 447.1" style="fill:#3B82F6;"></polygon><polygon points="565 447.1 568.93 447.1 561.66 362.19 557.74 362.19 565 447.1" style="fill:#fff; isolation:isolate; opacity:.6;"></polygon></g><g><polygon points="524.8 447.1 520.87 447.1 528.14 362.19 532.07 362.19 524.8 447.1" style="fill:#3B82F6;"></polygon><polygon points="524.8 447.1 520.87 447.1 528.14 362.19 532.07 362.19 524.8 447.1" style="fill:#fff; isolation:isolate; opacity:.6;"></polygon></g><path d="M548.27,362.2h-80.38c3.38-8.37,9.53-13.5,16.18-13.5h58.8l5.41,13.5Z" style="fill:#263238;"></path><g><polygon points="511.31 447.1 515.24 447.1 507.98 362.19 504.05 362.19 511.31 447.1" style="fill:#3B82F6;"></polygon><polygon points="511.31 447.1 515.24 447.1 507.98 362.19 504.05 362.19 511.31 447.1" style="fill:#fff; isolation:isolate; opacity:.6;"></polygon></g><g><polygon points="471.11 447.1 467.18 447.1 474.45 362.19 478.38 362.19 471.11 447.1" style="fill:#3B82F6;"></polygon><polygon points="471.11 447.1 467.18 447.1 474.45 362.19 478.38 362.19 471.11 447.1" style="fill:#fff; isolation:isolate; opacity:.6;"></polygon></g><path d="M566.89,362.2h-44.18c3.85-8.37,10.83-13.5,18.4-13.5h15.64c7.56,0,11.29,4.36,10.15,13.5Z" style="fill:#263238;"></path><path d="M566.89,362.2h-44.18c3.85-8.37,10.83-13.5,18.4-13.5h15.64c7.56,0,11.29,4.36,10.15,13.5Z" style="isolation:isolate; opacity:.5;"></path></g><g><g><polygon points="455.83 416.12 452.61 436.66 445.2 435.66 442.92 414.87 455.83 416.12" style="fill:#e4897b;"></polygon><path d="M441.31,430.93c-.12-1.26-.03-2.31,1.45-2.39l2.09-.11c.79,0,1.35,.48,1.99,.89,4.79,3.05,6.75-.89,8.61-.89,2.39,0,.85,7,.96,7.36l2.61,8.12c.23,.68-.23,2.14-1.02,2.34-.14,.03-.29,.05-.43,.05h-27.64c-4.4,0-4.45-4.94-2.64-5.29,8.14-1.54,11.35-3.98,14.04-5.77,0,0,.17-2.38,0-4.31Z" style="fill:#263238;"></path><path d="M429.92,446.3h27.64c.15,0,.29-.01,.43-.05,.54-.13,.92-.85,1.04-1.51v-.62h-32.64c.43,1.15,1.53,2.17,3.53,2.17Z" style="fill:#fff; opacity:.4;"></path><path d="M436.99,438.25c.34,.28,.65,.6,.93,.94,.03,.04,.07,.08,.1,.12-.02-.03-.01-.01,0,0l.05,.07c.07,.09,.13,.18,.19,.27,.12,.18,.23,.37,.34,.56,.09,.17,.35,.24,.51,.13,.18-.11,.23-.33,.13-.51-.44-.81-1.03-1.53-1.73-2.12-.15-.13-.39-.16-.53,0-.13,.14-.16,.4,0,.53h0Z" style="fill:#3B82F6;"></path><path d="M439.53,436.83c.31,.27,.6,.56,.86,.88,.03,.04,.06,.08,.09,.11l.04,.05s.04,.06,.01,.02c.06,.08,.12,.16,.18,.24,.12,.17,.23,.34,.34,.52,.1,.17,.34,.24,.51,.13s.24-.33,.13-.51c-.44-.74-.99-1.41-1.64-1.97-.15-.13-.39-.16-.53,0-.13,.14-.16,.39,0,.53h0Z" style="fill:#3B82F6;"></path><path d="M441.41,435.66c.15,.07,.29,.16,.43,.25,.03,.02,.07,.05,.1,.07,.04,.03-.07-.05-.01-.01l.05,.04c.06,.05,.12,.11,.18,.16s.11,.11,.17,.17c.02,.03,.05,.06,.07,.08,.01,.02,.03,.04,.04,.05l-.03-.04,.03,.03c.09,.13,.18,.26,.25,.4,.09,.17,.35,.24,.51,.13,.18-.11,.23-.33,.13-.51-.33-.64-.89-1.17-1.54-1.5-.18-.09-.41-.05-.51,.13-.09,.17-.05,.42,.13,.51h0Z" style="fill:#3B82F6;"></path><path d="M441.6,433.13c.19,0,.38,.01,.56,.03,.04,0,.08,0,.12,.01,.08,0-.02,0,.06,0,.09,.01,.19,.03,.28,.05,.35,.07,.7,.17,1.04,.3,.18,.07,.42-.08,.46-.26,.05-.21-.07-.39-.26-.46-.72-.27-1.49-.41-2.26-.42-.2,0-.38,.17-.38,.38s.16,.37,.38,.38h0Z" style="fill:#3B82F6;"></path><g style="opacity:.3;"><path d="M449.39,433.38c.04,.73,.32,1.52,1.02,1.86,.43,.21,.95,.2,1.44,.19,1.47-.04,2.93-.08,4.4-.12l.02-.04c.23-1.91,.85-6.57-.97-6.57-1.43,0-2.93,2.68-5.93,1.89,.02,1.01-.02,2.3,0,2.79Z"></path></g></g><g id="freepik--freepik--character-2--inject-2--inject-160"><path d="M503.83,318.64s-32.17,4.44-50.66,12.43c-6.42,2.77-10.21,8.46-11.05,14.62-4.1,33.37-.78,73.92-.78,73.92l15.45,2.1s8.23-38,8.04-64.84c16.87-4.76,60.68-1.66,65.84-15.64,2.52-7.24,3.19-15,1.94-22.57l-28.79-.02Z" style="fill:#3B82F6;"></path><path d="M497.52,325.3s-23.78,22.2-22.7,29.78c-3.37,.35-6.7,.95-9.98,1.8,0,2.61,.12,5.79-.17,8.38-10.03-14.96-9.08-29.33,32.86-39.95Z" style="isolation:isolate; opacity:.3;"></path><g><polygon points="503.84 413.45 507.37 433.94 500.03 435.37 491.21 416.41 503.84 413.45" style="fill:#e4897b;"></polygon><path d="M495.03,431.51c-.41-1.2-.57-2.24,.85-2.66l2-.6c.77-.19,1.43,.15,2.14,.39,5.37,1.84,6.35-2.45,8.16-2.89,2.32-.56,2.47,6.6,2.67,6.93l4.44,7.28c.38,.61,.28,2.14-.45,2.51-.13,.07-.27,.12-.41,.15-4.12,1-6.07,1.47-11.19,2.71l-15.67,3.79c-4.27,1.03-5.48-3.75-3.81-4.52,7.55-3.41,10.1-6.54,12.29-8.91,0,0-.39-2.35-1.02-4.19Z" style="fill:#263238;"></path><path d="M487.57,449.14l15.67-3.79c5.12-1.24,7.07-1.71,11.19-2.71,.14-.03,.28-.08,.41-.15,.49-.25,.69-1.04,.65-1.71l-.16-.6-31.71,7.68c.69,1.01,2,1.75,3.94,1.28Z" style="fill:#fff; opacity:.4;"></path><path d="M492.56,439.64c.39,.2,.77,.43,1.12,.69,0,0,.06,.05,.03,.03-.03-.02,.05,.04,.05,.04,.04,.03,.08,.07,.12,.1,.08,.07,.16,.14,.24,.21,.16,.15,.31,.3,.46,.47,.13,.15,.4,.14,.53,0,.14-.16,.14-.37,0-.53-.61-.68-1.36-1.24-2.18-1.65-.18-.09-.41-.05-.51,.13-.09,.17-.05,.42,.13,.51h0Z" style="fill:#3B82F6;"></path><path d="M494.7,437.67c.36,.19,.71,.41,1.04,.65l.06,.04s.06,.05,.03,.02c-.03-.03,.04,.03,.04,.03l.05,.04c.08,.06,.16,.13,.24,.2,.15,.13,.3,.28,.44,.42s.39,.15,.53,0,.15-.38,0-.53c-.6-.61-1.3-1.13-2.06-1.53-.17-.09-.42-.05-.51,.13-.09,.17-.05,.42,.13,.51h0Z" style="fill:#3B82F6;"></path><path d="M496.25,436.09c.16,.04,.32,.08,.47,.15,.01,0,.04,.02,.05,.02-.03,0-.06-.03,0,0,.04,.02,.07,.03,.11,.05,.07,.04,.14,.07,.21,.12,.07,.04,.13,.08,.19,.12,.03,.02,.07,.05,.1,.07,.07,.05-.04-.03,0,0l.04,.03c.13,.1,.24,.22,.35,.34,.13,.15,.4,.14,.53,0,.15-.16,.14-.37,0-.53-.48-.55-1.15-.92-1.85-1.09-.19-.04-.42,.06-.46,.26-.04,.19,.06,.41,.26,.46h0Z" style="fill:#3B82F6;"></path><path d="M495.85,433.58c.37-.08,.64-.12,1.02-.14s.72,0,1.08,.04c.2,.02,.38-.19,.38-.38-.01-.22-.17-.35-.38-.38-.77-.1-1.54-.05-2.3,.12-.19,.04-.32,.27-.26,.46,.06,.2,.26,.31,.46,.26h0Z" style="fill:#3B82F6;"></path><g style="opacity:.3;"><path d="M503.46,431.99c.21,.7,.67,1.4,1.43,1.57,.47,.1,.97-.03,1.44-.16,1.42-.38,2.83-.77,4.25-1.15v-.04c-.22-1.91-.71-6.59-2.48-6.16-1.39,.34-2.22,3.29-5.31,3.24,.26,.98,.52,2.24,.66,2.71Z"></path></g></g><path d="M524.67,318.71s-60.33,10.43-58.14,28.46c3.15,26.01,25.34,79.15,25.34,79.15l18.21-6.52s-11.67-47.28-15.67-66.26c15.5,0,47.51,1.67,52.67-12.3,2.51-7.12,3.02-14.79,1.47-22.17l-23.87-.36Z" style="fill:#3B82F6;"></path></g></g><path d="M514.94,242.92c5.35,3.91,6.02,14.89-10.53,38.52l-13.14-13.89c3.4-6.01,6.36-8.95,11.41-16.11,6.88-10.03,12.25-8.53,12.25-8.53Z" style="fill:#263238;"></path><path d="M502.34,319.39s10.38,13.29,26.99,15.38c16.61,2.09,19.77-2.01,19.77-2.01,0,0,.08-6.47,.33-6.14,.26,.33-45.38-9.13-45.38-9.13l-1.71,1.91Z" style="isolation:isolate; opacity:.3;"></path><g><path d="M514.78,242.71c4.26-.31,21.31-2.21,38.67,1.31l-1.68,61.49s.86,22.62,0,24.67c-18.23,7.45-40.99-3.4-52.52-10.84,.12,.3,3.18-7.84,3.18-7.84,2.13-19.6,5.52-50.16,8.74-67.8,.09-.44,3.19-.95,3.62-.98Z" style="fill:#263238;"></path><polygon points="551.54 281.37 550.58 281.5 547.13 264.59 548.73 283.57 551.76 284.06 551.54 281.37" style="isolation:isolate; opacity:.2;"></polygon></g><polygon points="506.21 278.83 508.94 257.68 502.75 279.69 504.41 281.45 506.21 278.83" style="isolation:isolate; opacity:.2;"></polygon><g><path d="M503.33,271.74c-.02,4.22,2.92,7.54,6.68,7.55l.04,.64c-.03,.8,.58,1.47,1.38,1.53l13,.05c.82,0,1.49-.67,1.49-1.49l.07-16.86c-.07-.58-.58-1-1.16-.96l-13.56-.04c-.58-.06-1.1,.34-1.2,.91v1.18c-3.76-.02-6.71,3.28-6.73,7.5Zm2.41,0c.02-2.82,1.98-5.28,4.31-5.28l-.04,10.59c-2.34-.01-4.28-2.49-4.26-5.32Z" style="fill:#3B82F6;"></path><g><g><path d="M551.17,275.68l.59,11.35-21.54-12.32-5.95,7.07s26.58,24.07,34.95,24.34c12.22,.39,6.09-32.81,6.09-32.81l-14.14,2.37Z" style="fill:#e4897b;"></path><path d="M553.45,244.02s6.84,1.26,8.48,9.83c1.52,7.89,5.77,25.43,5.77,25.43l-17.12,2.22-3.45-20.52,6.31-16.96Z" style="fill:#263238;"></path></g><path d="M525.53,268.43s-8.87-4-9.33-3.4c-.46,.6-1.35,2.79-.73,4.32,0,0-1.31,1.83-.02,3.45l.95,.91s-2.27,.72-.54,3.37c1.73,2.66,6.23,4.57,8.77,5.22,2.54,.65,6.68-1.47,6.6-1.92-.08-.45-1.43-10.28-2.12-12.75-.69-2.47-2.84-3.97-3.12-3.97l-.45,4.75Z" style="fill:#e4897b;"></path></g></g></g></g><g id="freepik--Table--inject-160"><polygon points="425.74 446.38 375.4 446.38 375.4 321.58 377.4 321.58 377.4 444.4 423.74 444.4 423.74 321.58 425.74 321.58 425.74 446.38" style="fill:#263238;"></polygon><g id="freepik--freepik--Desk--inject-2--inject-160"><rect x="357.17" y="315.63" width="254.65" height="5.95" style="fill:#3B82F6;"></rect><rect x="357.17" y="315.63" width="254.65" height="5.95" style="isolation:isolate; opacity:.2;"></rect><rect x="535.86" y="315.63" width="75.96" height="5.95" style="isolation:isolate; opacity:.2;"></rect><polygon points="608.13 447.68 557.79 447.68 557.79 321.58 559.79 321.58 559.79 445.68 606.13 445.68 606.13 321.58 608.13 321.58 608.13 447.68" style="fill:#263238;"></polygon></g><g><g><g><path d="M422.06,315.9h34.83c.6,0,1.08-.4,1.08-.88,0-.09-.02-.18-.05-.27l-15.49-35.52c-.39-1.01-1.56-1.71-2.88-1.71h-34.85c-.59,0-1.07,.38-1.07,.86,0,.1,.02,.2,.06,.29l15.49,35.52c.4,1.01,1.56,1.7,2.88,1.71Z" style="fill:#263238;"></path><path d="M404.69,277.52h34.85c1.32,0,2.49,.7,2.88,1.71l15.49,35.52c.04,.09,.05,.18,.05,.27,0,.48-.48,.88-1.08,.88h-34.83c-1.32-.01-2.48-.7-2.88-1.71l-15.49-35.52c-.04-.09-.06-.19-.06-.29,0-.47,.48-.86,1.07-.86Z" style="fill:#fff; opacity:.7;"></path><path d="M426.28,297.5c.75,1.7,2.28,2.88,3.42,2.64,1.14-.24,1.44-1.79,.71-3.5-.73-1.71-2.27-2.85-3.41-2.61-1.14,.24-1.48,1.73-.71,3.48Z" style="fill:#fff;"></path></g><path d="M439.33,277.52h.21c1.32,0,2.49,.7,2.88,1.71l15.49,35.52c.04,.09,.05,.18,.05,.27,0,.48-.48,.88-1.08,.88h-1.12l-16.44-38.38Z" style="opacity:.3;"></path></g><path d="M490.99,315.9h-36.26v-2.44h33.81c1.35,0,2.44,1.09,2.44,2.44h0Z" style="fill:#263238;"></path><path d="M490.99,315.9h-36.26v-2.44h33.81c1.35,0,2.44,1.09,2.44,2.44h0Z" style="fill:#fff; opacity:.7;"></path></g></g><g id="freepik--Character_1--inject-160"><g><g><path d="M138.76,207.87s13.48,31.94,15.21,32.1c1.72,.16,23.77-8.43,23.77-8.43l3.43,3.87s-11.54,15.44-29.82,20.34c-3.28,.88-7.43-2.84-11.38-7.92-.77-.99-1.53-2.03-2.29-3.11-4.07-6.03-7.71-12.33-10.92-18.86l12-18Z" style="fill:#3B82F6;"></path><path d="M138.76,207.87s13.48,31.94,15.21,32.1c1.72,.16,23.77-8.43,23.77-8.43l3.43,3.87s-11.54,15.44-29.82,20.34c-3.28,.88-7.43-2.84-11.38-7.92-.77-.99-1.53-2.03-2.29-3.11-4.07-6.03-7.71-12.33-10.92-18.86l12-18Z" style="fill:#fff; opacity:.6;"></path><path d="M141.38,216.21c.85,3.77,2.85,9.42,4.42,13.43,.51,1.3,.73,2.7,.5,4.08-.68,3.96-4.1,5.23-5.24,8.38-.64,1.85-1.01,3.78-1.09,5.73-.77-.99-1.53-2.03-2.29-3.11l-1.69-6.66,5.39-21.85Z" style="isolation:isolate; opacity:.2;"></path></g><g><polygon points="103.47 441.08 111.69 440.71 114.74 419.31 102.21 419.74 103.47 441.08" style="fill:#b97964;"></polygon><g><path d="M112.69,436.96h-2.93c-.66,0-1.27,.33-1.67,.87-1.69,2.3-2.96,1.43-4.79-.73-1.17-.14-1.48,1.2-1.58,1.56l-2.19,7.96c-.19,.66,.19,1.36,.86,1.55,.12,.03,.24,.05,.36,.05h23.18c3.69,0,4.45-3.72,2.93-4.06-6.83-1.51-11.67-3.52-13.78-5.51-.39-.35,.01-.61-.41-1.69Z" style="fill:#263238;"></path><path d="M118.42,439.62c.31-.22,.49-.58,.5-.96,.03-.2-.07-.4-.24-.52-.92-.65-4.58,1.06-4.99,1.26-.05,.02-.08,.05-.1,.1-.03,.08,.01,.18,.1,.21,.9,.21,1.82,.33,2.74,.35,.69,.07,1.39-.09,1.99-.45Zm.03-1.19c.07,.05,.11,.13,.1,.22-.02,.27-.15,.53-.36,.7-.83,.62-2.84,.35-3.92,.15,1.52-.67,3.68-1.42,4.18-1.07Z" style="fill:#3B82F6;"></path><path d="M113.82,439.75c1.1-.46,3.4-2.26,3.28-3.22-.02-.2-.16-.44-.66-.51-2.01-.23-2.87,3.37-2.87,3.52-.02,.06,0,.13,.05,.17,.04,.01,.08,.01,.11,0l.09,.03Zm2.55-3.43c.37,.04,.37,.17,.37,.22,.1,.58-1.57,2.08-2.76,2.71,.25-.84,.98-2.94,2.25-2.94h.13Z" style="fill:#3B82F6;"></path><path d="M111.62,441.46s-.09-.01-.13-.04c-.12-.07-.15-.23-.08-.34,.58-.93,1.58-1.57,2.66-1.71,.14-.02,.26,.08,.28,.21,.02,.14-.08,.26-.21,.28-.94,.13-1.8,.68-2.31,1.48-.05,.08-.13,.12-.21,.12Z" style="fill:#3B82F6;"></path><path d="M113.44,442.83s-.09-.01-.13-.04c-.12-.07-.15-.23-.08-.34,.58-.93,1.58-1.57,2.66-1.72,.13-.01,.26,.08,.28,.21s-.08,.26-.21,.28c-.94,.13-1.8,.68-2.31,1.49-.05,.08-.13,.12-.21,.12Z" style="fill:#3B82F6;"></path><path d="M115.7,443.98s-.09-.01-.13-.04c-.12-.07-.15-.23-.08-.34,.58-.93,1.58-1.57,2.66-1.72,.13-.01,.26,.08,.28,.21,.02,.14-.08,.26-.21,.28-.94,.13-1.8,.68-2.31,1.49-.05,.08-.13,.12-.21,.12Z" style="fill:#3B82F6;"></path></g><polygon points="113.08 430.98 112.69 433.73 103.02 433.56 102.87 430.98 113.08 430.98" style="opacity:.3;"></polygon></g><g><polygon points="137.74 438.96 146.67 437.83 148.64 417.66 136.39 417.32 137.74 438.96" style="fill:#b97964;"></polygon><g><path d="M147.13,436.15h-2.93c-.66,0-1.27,.33-1.67,.87-1.69,2.3-2.96,1.43-4.79-.73-1.17-.14-1.48,1.2-1.58,1.56l-2.19,7.96c-.19,.66,.19,1.36,.86,1.55,.12,.03,.24,.05,.36,.05h23.18c3.69,0,4.45-3.72,2.93-4.06-6.83-1.51-11.67-3.52-13.78-5.51-.39-.35,.01-.61-.41-1.69Z" style="fill:#263238;"></path><path d="M153.47,438.41c.31-.22,.49-.58,.5-.96,.03-.2-.07-.4-.24-.52-.92-.65-4.58,1.06-4.99,1.26-.05,.02-.08,.05-.1,.1-.03,.08,.01,.18,.1,.21,.9,.21,1.82,.33,2.74,.35,.69,.07,1.39-.09,1.99-.45Zm.03-1.19c.07,.05,.11,.13,.1,.22-.02,.27-.15,.53-.36,.7-.83,.62-2.84,.35-3.92,.15,1.52-.67,3.68-1.42,4.18-1.07Z" style="fill:#3B82F6;"></path><path d="M148.87,438.54c1.1-.46,3.4-2.26,3.28-3.22-.02-.2-.16-.44-.66-.51-2.01-.23-2.87,3.37-2.87,3.52-.02,.06,0,.13,.05,.17,.04,.01,.08,.01,.11,0l.09,.03Zm2.55-3.43c.37,.04,.37,.17,.37,.22,.11,.58-1.57,2.08-2.76,2.71,.25-.84,.98-2.94,2.25-2.94h.13Z" style="fill:#3B82F6;"></path><path d="M146.67,440.25s-.09-.01-.13-.04c-.12-.07-.15-.23-.08-.34,.58-.93,1.58-1.57,2.66-1.72,.13-.02,.26,.08,.28,.21,.02,.14-.08,.26-.21,.28-.94,.13-1.8,.68-2.31,1.49-.05,.08-.13,.12-.21,.12Z" style="fill:#3B82F6;"></path><path d="M148.49,441.62s-.09-.01-.13-.04c-.12-.07-.15-.23-.08-.34,.58-.93,1.58-1.57,2.66-1.72,.13-.01,.26,.08,.28,.21s-.08,.26-.21,.28c-.94,.13-1.8,.68-2.31,1.49-.05,.08-.13,.12-.21,.12Z" style="fill:#3B82F6;"></path><path d="M150.75,442.77s-.09-.01-.13-.04c-.12-.07-.15-.23-.08-.34,.58-.93,1.58-1.57,2.66-1.72,.13-.01,.26,.08,.28,.21,.02,.14-.08,.26-.21,.28-.94,.13-1.8,.68-2.31,1.49-.05,.08-.13,.12-.21,.12Z" style="fill:#3B82F6;"></path></g><polygon points="147.46 429.77 147.19 432.53 137.34 432.47 137.17 429.77 147.46 429.77" style="opacity:.3;"></polygon></g><path d="M94.91,236.26c5.2-8.11-2.03-16.15-1.87-25.61,.16-9.46,4.22-18.83,4.73-28.28,.24-4.54,.87-9.15,2.8-13.32,1.93-4.18,5.49-8.61,9.96-10.32l22.57,9.65c3.53,16.45,3.36,27.02,2.91,37.22-.46,10.24-1.21,20.1-3.56,31.79-.3,1.47-.64,3-1.61,4.19-1.31,1.61-3.51,2.28-5.56,2.87-5.24,1.49-10.51,3-15.95,3.55-5.44,.55-6.43-.03-11.33-2.29-1.66-.76-4.18-2.33-4.41-4.06-.19-1.47,.51-4.1,1.32-5.36Z" style="fill:#263238;"></path><g><path d="M118.81,269.96l22.94,.09s8.01,40.34,7.54,85.57c.94,26.55,.19,75.38,.19,75.38h-14.92s-9.5-39.66-5.7-71.08c-1.38-5.42-3.23-14.8-4.32-19.59-3.04-12.91-5.34-25.98-6.86-39.15-2.62-24.69,1.13-31.23,1.13-31.23Z" style="fill:#263238;"></path><path d="M120.84,285.8s8.27,37.14,3.7,54.54c-3.04-12.91-5.34-25.98-6.86-39.15l3.16-15.39Z" style="isolation:isolate; opacity:.2;"></path><path d="M99.53,259.4c-2,8.96-9.85,19.91-11.43,31.37-2.71,19.58,9.06,43.93,12.14,66.91-4.65,33.98,2.48,75.18,1.53,74.29h14.97c.45-3.02,3.53-49.06,5.05-76.34,1.29-23.87,3.36-83.91,3.36-83.91l-25.62-12.32Z" style="fill:#263238;"></path></g><g><path d="M140,239.61c-1.15,7.91,.56,24.82,3.88,36.48,1.18,4.15-32.37,3.59-51.2-2.63l6.29-19.48c-.02-1.61-3.13-13.14-3.21-14.83-.38-8.22-1.3-16.41-2.74-24.51-.06-.35-.11-.71-.13-1.06-.31-4.4-.42-7.81,3.41-9.46,1.02-.44,4.81-1.26,5.98-1.34,1.61-.12,3.49-.36,5.23-.41,1.74-.05,1.79-.28,3.4-.28,4.4-.08,10.22,.54,14.59,1.04l.97,.13c1.64,.21,3.3,.48,4.91,.76,0,0,4.07,.58,6.4,2.53,2.32,1.95,7.63,22.08,6.7,27.33-.81,4.56-4.47,5.75-4.47,5.75Z" style="fill:#3B82F6;"></path><path d="M140,239.61c-1.15,7.91,.56,24.82,3.88,36.48,1.18,4.15-32.37,3.59-51.2-2.63l6.29-19.48c-.02-1.61-3.13-13.14-3.21-14.83-.38-8.22-1.3-16.41-2.74-24.51-.06-.35-.11-.71-.13-1.06-.31-4.4-.42-7.81,3.41-9.46,1.02-.44,4.81-1.26,5.98-1.34,1.61-.12,3.49-.36,5.23-.41,1.74-.05,1.79-.28,3.4-.28,4.4-.08,10.22,.54,14.59,1.04l.97,.13c1.64,.21,3.3,.48,4.91,.76,0,0,4.07,.58,6.4,2.53,2.32,1.95,7.63,22.08,6.7,27.33-.81,4.56-4.47,5.75-4.47,5.75Z" style="fill:#fff; opacity:.6;"></path><path d="M96.88,260.44l-2.04,6.33s22.83-4.01,34.28-14.25c8.15-7.29,6.87-10.36,6.87-10.36l-9.23,.89-29.88,17.38Z" style="isolation:isolate; opacity:.2;"></path><path d="M102.24,225.27l.44,21.92c-3.45,2.19-4.53,3.54-5.06,.39l-1.89-8.91,6.5-13.41Z" style="isolation:isolate; opacity:.2;"></path></g><g><path d="M102.24,225.27s-8.65,21.41-7.09,22.4c1.56,.99,26.45-5.82,26.45-5.82l4.8,6.35c-.84,3.7-44.67,26.29-48.17,6.79-2.13-11.84,11.12-43.66,11.12-43.66,3.34-5.94,7.97-8.78,9.8-7.09,4.78,4.42,3.09,21.02,3.09,21.02Z" style="fill:#3B82F6;"></path><path d="M102.24,225.27s-8.65,21.41-7.09,22.4c1.56,.99,26.45-5.82,26.45-5.82l4.8,6.35c-.84,3.7-44.67,26.29-48.17,6.79-2.13-11.84,11.12-43.66,11.12-43.66,3.34-5.94,7.97-8.78,9.8-7.09,4.78,4.42,3.09,21.02,3.09,21.02Z" style="fill:#fff; opacity:.6;"></path><g><path d="M126.4,248.2c2.94,.23,3.05-4.2,4.58-4.37,.89-.09,1.76-.31,2.59-.66,0,0-.97,2.66,0,2.45,.97-.21,4.08-.37,4.84-2.91,.77-2.54-2-7.96-2.63-8.72-.63-.76-3.94-.52-3.94-.52,0,0,3.56-.92,5.52-1.19,1.96-.27,2.33-2.51-.4-2.01-1.12,.2-9.97,.27-10.93,1.18-.96,.91-4.51,9.86-4.51,9.86-1.32,.76,2.03,8.26,4.9,6.89Z" style="fill:#b97964;"></path><g style="opacity:.3;"><path d="M131.8,233.19c-.91-.06-1.82,0-2.71,.17-.13,.04-.21,.17-.18,.31,.03,.12,.14,.2,.26,.18,.84-.17,1.71-.23,2.57-.17,.32,0,.38-.47,.06-.49Z"></path><path d="M136.36,235.87c.28,.15,.57-.26,.29-.41-1.66-.88-3.4-.39-5.08,.17-.3,.1-.09,.55,.21,.46,1.47-.49,3.1-.97,4.57-.22Z"></path><path d="M137.66,238.06c-1.43-.85-3.19-.93-4.69-.2-.12,.07-.15,.23-.08,.35,.06,.09,.17,.14,.28,.11,1.34-.65,2.92-.59,4.2,.15,.27,.16,.56-.24,.28-.41Z"></path><path d="M135.28,241.78c.13-.26,.23-.53,.3-.82,.07-.31-.4-.48-.47-.17-.21,.95-.8,1.78-1.64,2.28-.28,.16-.07,.61,.2,.46h-.03c.53-.3,.96-.71,1.3-1.19,.03,0,.06,.02,.1,0,.52-.18,1.1-.03,1.46,.39,.21,.24,.59-.08,.38-.32-.41-.47-1.01-.68-1.61-.61Z"></path></g></g></g><g><path d="M151.07,248.63c-1.01-.39-1.55-1.68-1.21-2.89l9.02-36.33c.52-1.71,1.89-2.87,3.42-2.89l23.63,.49c.26-.03,.52,0,.76,.1,1.01,.39,1.55,1.68,1.21,2.89l-9.03,36.33c-.52,1.71-1.89,2.87-3.42,2.89l-23.63-.49c-.25,.02-.51-.01-.75-.1Z" style="fill:#263238;"></path><path d="M182.04,226.14c-.47-.04-2.44,.94-3.37,.29-.93-.65-.06-1.18-.06-1.18,1.7-.42,3.57-2.55,4.61-1.94s2.75,1.38,2.5,2.34c-.28,.9-.63,1.77-1.03,2.62,.27,.43,.31,.97,.1,1.43-.21,.54-.68,.93-1.25,1.04,.32,.33,.49,.78,.46,1.24-.08,.74-2.01,1.7-2.01,1.7,0,0,.38,1.15-.07,1.6-.76,.62-1.76,.85-2.71,.62-1.13-.27-1.91-.66-1.83-1.8s2.12-1.14,2.12-1.14c0,0-3.84-1.16-3.02-1.89,.81-.73,3.87-.64,3.87-.64,0,0-5.19-1.03-4.37-2.09,.82-1.07,6-.77,6-.77,0,0,.52-1.39,.06-1.43Z" style="fill:#b97964;"></path><polygon points="181.21 205.62 168.19 205.39 167.07 208.27 180.31 208.53 181.21 205.62" style="fill:#263238;"></polygon><polygon points="172.68 205.83 172.68 203.51 178.91 203.51 177.49 206.19 172.68 205.83" style="fill:#263238;"></polygon></g><g><g><path d="M122.19,164.07s7.23,13.03,7.57,17.09c2.77,2.36,4.74-2.42,4.63-8.83-.08-5.24-2.82-10.9-7.35-12.94-6.36-2.86-4.86,4.68-4.86,4.68Z" style="fill:#263238;"></path><g><g><path d="M120.83,201.74c-1.21-1.21-.92-2.67-.69-4.43,.16-1.35,.6-2.76,1.12-4.13l-1.81-1.96-9.4-8.82c.45,6.1,1.2,16.59-3.46,20.08l19.65,12.49-1.82-11.96s-1.81-.27-3.59-1.27Z" style="fill:#b97964;"></path><path d="M120.08,197.84c-2.55-1.39-5.38-3.86-5.16-6.81,.1-1.24,.33-2.42,.59-3.18l5.31,6.52c-.38,1.1-.5,1.82-.75,3.46Z" style="opacity:.2;"></path><path d="M107.12,172.67c1.19,9.29,1.5,13.23,6.49,17.95,7.5,7.09,18.54,4.21,20.12-5.09,1.42-8.38-.76-22.16-10.06-25.74-9.15-3.53-17.74,3.6-16.55,12.89Z" style="fill:#b97964;"></path><path d="M119.75,175.95c0,.87,.51,1.62,1.12,1.66,.61,.04,1.1-.63,1.09-1.51,0-.87-.51-1.62-1.12-1.66-.61-.04-1.1,.63-1.09,1.51Z" style="fill:#263238;"></path><path d="M128.62,175.27c-.04,.85,.42,1.6,1.02,1.67,.61,.08,1.13-.55,1.17-1.39,.04-.85-.42-1.6-1.02-1.67-.61-.08-1.13,.55-1.17,1.39Z" style="fill:#263238;"></path><path d="M117.27,172.94c.12,0,.24-.03,.33-.12,1.37-1.39,3.01-1,3.03-1,.24,.06,.48-.09,.52-.33,.04-.25-.12-.5-.37-.56-.09-.02-2.14-.51-3.85,1.22-.17,.17-.16,.46,.02,.65,.09,.09,.2,.14,.31,.15Z" style="fill:#263238;"></path><path d="M131.72,171.04c.11-.04,.2-.11,.25-.21,.11-.22,0-.49-.23-.6-2.35-1.13-4.18-.15-4.26-.11-.22,.12-.28,.39-.14,.6,.14,.21,.43,.29,.64,.17,.07-.04,1.5-.78,3.37,.12,.12,.06,.25,.06,.37,.03Z" style="fill:#263238;"></path><path d="M104.57,180.37c1.17,1.87,3,3.01,4.66,3.36,2.49,.53,3.62-3.48,2.69-5.92-.84-2.2-3.32-3.58-5.7-3.01-2.35,.56-2.98,3.44-1.65,5.57Z" style="fill:#b97964;"></path><path d="M125.97,174.54s1.58,3.44,3.31,5.55c.3,.37,.14,.93-.3,1.11-1.14,.47-2.5,.13-2.5,.13l-.51-6.79Z" style="fill:#c15854;"></path></g><path d="M120.66,174.41l2.16-.4s-1.24,1.54-2.16,.4Z" style="fill:#263238;"></path><path d="M129.48,173.88l2.18-.28c-1.06,1.16-1.91,.66-2.18,.28Z" style="fill:#263238;"></path></g><path d="M104.6,167.58c-1.26,1.83,1.25,7.13,1.25,7.13,0,0,4.47-1.33,4.71,5.4,1.65,.27,3.5-6.01,3.23-12.33-.33-3.57-6.96-3.43-9.2-.2Z" style="fill:#263238;"></path><path d="M108.67,181.43s-.04,0-.06,0c-1.52-.36-2.21-1.16-2.53-1.77-.31-.6-.38-1.27-.19-1.77,.31-.78,1.26-1.37,2.19-1.01,.13,.05,.19,.19,.14,.32s-.19,.19-.32,.14c-.64-.25-1.33,.19-1.55,.73-.11,.27-.13,.78,.17,1.35,.27,.52,.87,1.2,2.2,1.51,.13,.03,.22,.17,.19,.3-.03,.12-.13,.19-.24,.19Z" style="opacity:.2;"></path></g><g><path d="M127.34,184.38c-.7,1.03-1.56,3.03-1.56,3.03-.2-.04-.39-.09-.58-.14-2.63-.68-3.63-1.86-3.94-2.97-.17-.61-.12-1.2-.02-1.66,.11-.54,.31-.9,.31-.9,1.18,1.19,3.59,2.01,4.89,2.4,.54,.17,.89,.24,.89,.24Z" style="fill:#263238;"></path><path d="M126.45,184.13l-.48,.88c-2.48-.64-4.14-1.43-4.72-2.38,.11-.54,.31-.9,.31-.9,1.18,1.19,3.59,2.01,4.89,2.4Z" style="fill:#fff;"></path><path d="M125.2,187.26c-2.63-.68-3.63-1.86-3.94-2.97,.89,.27,1.93,.68,2.78,1.33,.65,.49,.98,1.08,1.17,1.64Z" style="fill:#dc5753;"></path></g><path d="M130.95,162.4c-1.97-4.1-10-7.91-19.24-3.95-8.34,3.56-10.75,15.71-4.72,16.17s13.14-5.44,13.14-5.44l10.82-6.77Z" style="fill:#263238;"></path></g></g></g></svg>
